<?xml version="1.0" encoding="utf-8"?>
<svg xmlns="http://www.w3.org/2000/svg" viewBox="0 0 48 48" width="144" height="144">
  <path d="M36.5,6h-25C8.467,6,6,8.467,6,11.5v25c0,3.033,2.467,5.5,5.5,5.5h25c3.033,0,5.5-2.467,5.5-5.5v-25C42,8.467,39.533,6,36.5,6z M18,35c0,0.552-0.448,1-1,1h-4c-0.552,0-1-0.448-1-1v-4c0-0.552,0.448-1,1-1h4c0.552,0,1,0.448,1,1V35z M18,26c0,0.552-0.448,1-1,1h-4c-0.552,0-1-0.448-1-1v-4c0-0.552,0.448-1,1-1h4c0.552,0,1,0.448,1,1V26z M18,17c0,0.552-0.448,1-1,1h-4c-0.552,0-1-0.448-1-1v-4c0-0.552,0.448-1,1-1h4c0.552,0,1,0.448,1,1V17z M27,35c0,0.552-0.448,1-1,1h-4c-0.552,0-1-0.448-1-1v-4c0-0.552,0.448-1,1-1h4c0.552,0,1,0.448,1,1V35z M27,26c0,0.552-0.448,1-1,1h-4c-0.552,0-1-0.448-1-1v-4c0-0.552,0.448-1,1-1h4c0.552,0,1,0.448,1,1V26z M27,17c0,0.552-0.448,1-1,1h-4c-0.552,0-1-0.448-1-1v-4c0-0.552,0.448-1,1-1h4c0.552,0,1,0.448,1,1V17z M36,35c0,0.552-0.448,1-1,1h-4c-0.552,0-1-0.448-1-1v-4c0-0.552,0.448-1,1-1h4c0.552,0,1,0.448,1,1V35z M36,26c0,0.552-0.448,1-1,1h-4c-0.552,0-1-0.448-1-1v-4c0-0.552,0.448-1,1-1h4c0.552,0,1,0.448,1,1V26z M36,17c0,0.552-0.448,1-1,1h-4c-0.552,0-1-0.448-1-1v-4c0-0.552,0.448-1,1-1h4c0.552,0,1,0.448,1,1V17z" fill="#D4E000" />
</svg>