<svg version="1.1" id="Layer_1" xmlns="http://www.w3.org/2000/svg" xmlns:xlink="http://www.w3.org/1999/xlink" x="0px" y="0px"
	 width="100%" viewBox="0 0 512 512" enable-background="new 0 0 512 512" xml:space="preserve">
<path fill="#7F7F7F" opacity="1.000000" stroke="none" 
	d="
M283.000000,513.000000 
	C188.689560,513.000000 94.879120,513.000000 1.034338,513.000000 
	C1.034338,342.397858 1.034338,171.795731 1.034338,1.096792 
	C171.560455,1.096792 342.121002,1.096792 512.840759,1.096792 
	C512.840759,171.666550 512.840759,342.333252 512.840759,513.000000 
	C436.462372,513.000000 359.981171,513.000000 283.000000,513.000000 
M241.000000,218.500000 
	C241.000000,201.750259 241.000000,185.000519 241.000000,168.307098 
	C174.617859,168.307098 109.027115,168.307098 43.395569,168.307098 
	C43.395569,228.990372 43.395569,289.365692 43.395569,349.692810 
	C109.382339,349.692810 174.973068,349.692810 241.000000,349.692810 
	C241.000000,306.091370 241.000000,262.795685 241.000000,218.500000 
M471.000000,331.499115 
	C471.000000,277.084930 471.000000,222.670731 471.000000,168.307312 
	C404.617432,168.307312 339.026672,168.307312 273.395782,168.307312 
	C273.395782,228.990799 273.395782,289.366119 273.395782,349.692566 
	C339.382782,349.692566 404.973541,349.692566 471.000000,349.692566 
	C471.000000,343.761078 471.000000,338.129700 471.000000,331.499115 
M218.499939,43.000000 
	C200.750183,43.000000 183.000427,43.000000 165.306992,43.000000 
	C165.306992,74.716118 165.306992,105.640388 165.306992,136.604553 
	C190.658325,136.604553 215.700638,136.604553 240.692993,136.604553 
	C240.692993,105.283867 240.692993,74.359589 240.692993,43.000000 
	C233.429337,43.000000 226.464600,43.000000 218.499939,43.000000 
M273.194702,43.851982 
	C273.194702,74.747406 273.194702,105.642822 273.194702,136.652924 
	C297.940796,136.652924 322.292725,136.652924 346.609253,136.652924 
	C346.609253,105.291687 346.609253,74.279175 346.609253,43.188824 
	C322.104004,43.188824 297.989227,43.188824 273.194702,43.851982 
M165.008102,468.239624 
	C164.757919,471.982971 167.574890,470.963165 169.482330,470.967377 
	C191.950012,471.017090 214.417862,471.005035 236.885651,470.983154 
	C238.153915,470.981903 239.421967,470.752777 240.602402,470.638214 
	C240.602402,440.945160 240.602402,411.598785 240.602402,382.271881 
	C215.304489,382.271881 190.405167,382.271881 165.001633,382.271881 
	C165.001633,410.787018 165.001633,439.033325 165.008102,468.239624 
M346.805328,470.147980 
	C346.805328,440.918457 346.805328,411.688934 346.805328,382.347107 
	C322.057709,382.347107 297.706512,382.347107 273.391846,382.347107 
	C273.391846,412.042542 273.391846,441.389160 273.391846,470.811157 
	C297.897461,470.811157 322.011505,470.811157 346.805328,470.147980 
M408.500000,137.000000 
	C428.254211,137.000000 448.008453,137.000000 467.858856,137.000000 
	C459.487885,85.403427 422.555420,53.611549 379.313507,46.868252 
	C379.313507,76.762589 379.313507,106.668953 379.313507,137.000000 
	C388.913879,137.000000 398.206940,137.000000 408.500000,137.000000 
M131.239685,136.991898 
	C134.982147,137.242249 133.964386,134.426025 133.967651,132.518707 
	C134.014175,105.395508 134.003159,78.272194 133.987549,51.148914 
	C133.986801,49.848122 133.815018,48.547432 133.721542,47.227711 
	C88.960678,53.774368 52.880333,89.643143 46.427837,136.998367 
	C74.412033,136.998367 102.345825,136.998367 131.239685,136.991898 
M380.812805,382.038879 
	C380.208984,383.336700 379.111176,384.623779 379.082703,385.934143 
	C378.916321,393.586182 379.000122,401.243622 379.000061,408.899261 
	C378.999878,428.360016 379.000000,447.820740 379.000000,467.326447 
	C422.929047,460.087646 457.708435,429.022827 466.656586,382.008026 
	C438.314575,382.008026 410.039368,382.008026 380.812805,382.038879 
M103.396614,457.092651 
	C112.871300,462.041046 122.920174,465.186127 133.709274,467.157562 
	C133.709274,438.607239 133.709274,410.538483 133.709274,382.313721 
	C104.717018,382.313721 76.016342,382.313721 47.094013,382.313721 
	C54.527420,415.762421 72.197159,441.105957 103.396614,457.092651 
z"/>
<path fill="#FFFFFF" opacity="1.000000" stroke="none" 
	d="
M241.000000,219.000000 
	C241.000000,262.795685 241.000000,306.091370 241.000000,349.692810 
	C174.973068,349.692810 109.382339,349.692810 43.395569,349.692810 
	C43.395569,289.365692 43.395569,228.990372 43.395569,168.307098 
	C109.027115,168.307098 174.617859,168.307098 241.000000,168.307098 
	C241.000000,185.000519 241.000000,201.750259 241.000000,219.000000 
z"/>
<path fill="#FFFFFF" opacity="1.000000" stroke="none" 
	d="
M471.000000,331.998718 
	C471.000000,338.129700 471.000000,343.761078 471.000000,349.692566 
	C404.973541,349.692566 339.382782,349.692566 273.395782,349.692566 
	C273.395782,289.366119 273.395782,228.990799 273.395782,168.307312 
	C339.026672,168.307312 404.617432,168.307312 471.000000,168.307312 
	C471.000000,222.670731 471.000000,277.084930 471.000000,331.998718 
z"/>
<path fill="#FFFFFF" opacity="1.000000" stroke="none" 
	d="
M218.999893,43.000000 
	C226.464600,43.000000 233.429337,43.000000 240.692993,43.000000 
	C240.692993,74.359589 240.692993,105.283867 240.692993,136.604553 
	C215.700638,136.604553 190.658325,136.604553 165.306992,136.604553 
	C165.306992,105.640388 165.306992,74.716118 165.306992,43.000000 
	C183.000427,43.000000 200.750183,43.000000 218.999893,43.000000 
z"/>
<path fill="#FFFFFF" opacity="1.000000" stroke="none" 
	d="
M273.534546,43.520401 
	C297.989227,43.188824 322.104004,43.188824 346.609253,43.188824 
	C346.609253,74.279175 346.609253,105.291687 346.609253,136.652924 
	C322.292725,136.652924 297.940796,136.652924 273.194702,136.652924 
	C273.194702,105.642822 273.194702,74.747406 273.534546,43.520401 
z"/>
<path fill="#FFFFFF" opacity="1.000000" stroke="none" 
	d="
M165.004868,467.759613 
	C165.001633,439.033325 165.001633,410.787018 165.001633,382.271881 
	C190.405167,382.271881 215.304489,382.271881 240.602402,382.271881 
	C240.602402,411.598785 240.602402,440.945160 240.602402,470.638214 
	C239.421967,470.752777 238.153915,470.981903 236.885651,470.983154 
	C214.417862,471.005035 191.950012,471.017090 169.482330,470.967377 
	C167.574890,470.963165 164.757919,471.982971 165.004868,467.759613 
z"/>
<path fill="#FFFFFF" opacity="1.000000" stroke="none" 
	d="
M346.465454,470.479553 
	C322.011505,470.811157 297.897461,470.811157 273.391846,470.811157 
	C273.391846,441.389160 273.391846,412.042542 273.391846,382.347107 
	C297.706512,382.347107 322.057709,382.347107 346.805328,382.347107 
	C346.805328,411.688934 346.805328,440.918457 346.465454,470.479553 
z"/>
<path fill="#FFFFFF" opacity="1.000000" stroke="none" 
	d="
M408.000000,137.000000 
	C398.206940,137.000000 388.913879,137.000000 379.313507,137.000000 
	C379.313507,106.668953 379.313507,76.762589 379.313507,46.868252 
	C422.555420,53.611549 459.487885,85.403427 467.858856,137.000000 
	C448.008453,137.000000 428.254211,137.000000 408.000000,137.000000 
z"/>
<path fill="#FFFFFF" opacity="1.000000" stroke="none" 
	d="
M130.759644,136.995132 
	C102.345825,136.998367 74.412033,136.998367 46.427837,136.998367 
	C52.880333,89.643143 88.960678,53.774368 133.721542,47.227711 
	C133.815018,48.547432 133.986801,49.848122 133.987549,51.148914 
	C134.003159,78.272194 134.014175,105.395508 133.967651,132.518707 
	C133.964386,134.426025 134.982147,137.242249 130.759644,136.995132 
z"/>
<path fill="#FFFFFF" opacity="1.000000" stroke="none" 
	d="
M381.288513,382.023438 
	C410.039368,382.008026 438.314575,382.008026 466.656586,382.008026 
	C457.708435,429.022827 422.929047,460.087646 379.000000,467.326447 
	C379.000000,447.820740 378.999878,428.360016 379.000061,408.899261 
	C379.000122,401.243622 378.916321,393.586182 379.082703,385.934143 
	C379.111176,384.623779 380.208984,383.336700 381.288513,382.023438 
z"/>
<path fill="#FFFFFF" opacity="1.000000" stroke="none" 
	d="
M103.028381,457.005920 
	C72.197159,441.105957 54.527420,415.762421 47.094013,382.313721 
	C76.016342,382.313721 104.717018,382.313721 133.709274,382.313721 
	C133.709274,410.538483 133.709274,438.607239 133.709274,467.157562 
	C122.920174,465.186127 112.871300,462.041046 103.028381,457.005920 
z"/>
</svg>