<?xml version="1.0" encoding="utf-8"?>
<svg xmlns="http://www.w3.org/2000/svg" viewBox="0 0 30 30" width="480" height="480">
  <path d="M15 3C11.686 3 9 5.686 9 9L9 10C9 13.314 11.686 16 15 16C18.314 16 21 13.314 21 10L21 9C21 5.686 18.314 3 15 3 z M 11.097656 19.552734C8.1626562 20.319734 5.3940469 21.763797 4.3730469 23.091797C3.4590469 24.279797 4.329125 26 5.828125 26L24.169922 26C25.668922 26 26.539 24.278844 25.625 23.089844C24.604 21.761844 21.836344 20.319734 18.902344 19.552734C17.852344 20.453734 16.491 21 15 21C13.508 21 12.147656 20.452734 11.097656 19.552734 z" fill="#D4E000" />
</svg>