<?xml version="1.0" encoding="utf-8"?>
<svg xmlns="http://www.w3.org/2000/svg" viewBox="0 0 30 30" width="480" height="480">
  <path d="M5 1 A 1 1 0 0 0 4 2 A 1 1 0 0 0 5 3 A 1 1 0 0 0 6 2 A 1 1 0 0 0 5 1 z M 9.0234375 1.9960938 A 1.0001 1.0001 0 0 0 8.6835938 3.9492188L17.835938 7L6 7C4.343 7 3 8.343 3 10L3 23C3 24.105 3.895 25 5 25L25 25C26.105 25 27 24.105 27 23L27 10C27 8.4231774 25.779988 7.1448238 24.234375 7.0234375L9.3164062 2.0507812 A 1.0001 1.0001 0 0 0 9.0234375 1.9960938 z M 11 11C11.552 11 12 11.448 12 12C12 12.552 11.552 13 11 13C10.448 13 10 12.552 10 12C10 11.448 10.448 11 11 11 z M 22.5 11C23.328 11 24 11.672 24 12.5C24 13.328 23.328 14 22.5 14C21.672 14 21 13.328 21 12.5C21 11.672 21.672 11 22.5 11 z M 7.6601562 13.007812C7.7890625 13.023781 7.9156562 13.065766 8.0351562 13.134766C8.5131562 13.410766 8.6783438 14.022 8.4023438 14.5C8.1263438 14.978 7.5131563 15.141234 7.0351562 14.865234C6.5571563 14.589234 6.3939219 13.978 6.6699219 13.5C6.8769219 13.1415 7.2734375 12.959906 7.6601562 13.007812 z M 14.339844 13.007812C14.726562 12.959906 15.123078 13.1415 15.330078 13.5C15.606078 13.978 15.442844 14.589234 14.964844 14.865234C14.486844 15.141234 13.873656 14.978 13.597656 14.5C13.321656 14.022 13.486844 13.410766 13.964844 13.134766C14.084344 13.065766 14.210938 13.023781 14.339844 13.007812 z M 11 15C11.552 15 12 15.448 12 16C12 16.552 11.552 17 11 17C10.448 17 10 16.552 10 16C10 15.448 10.448 15 11 15 z M 22.5 17C23.328 17 24 17.672 24 18.5C24 19.328 23.328 20 22.5 20C21.672 20 21 19.328 21 18.5C21 17.672 21.672 17 22.5 17 z M 7.4121094 17.007812C7.7988281 16.959906 8.1953437 17.1415 8.4023438 17.5C8.6783437 17.978 8.5131563 18.589234 8.0351562 18.865234C7.5571563 19.141234 6.9459219 18.978 6.6699219 18.5C6.3939219 18.022 6.5571562 17.410766 7.0351562 17.134766C7.1546563 17.065766 7.2832031 17.023781 7.4121094 17.007812 z M 14.587891 17.007812C14.716797 17.023781 14.845344 17.065766 14.964844 17.134766C15.442844 17.410766 15.606078 18.022 15.330078 18.5C15.054078 18.978 14.442844 19.141234 13.964844 18.865234C13.486844 18.589234 13.321656 17.978 13.597656 17.5C13.804656 17.1415 14.201172 16.959906 14.587891 17.007812 z M 11 19C11.552 19 12 19.448 12 20C12 20.552 11.552 21 11 21C10.448 21 10 20.552 10 20C10 19.448 10.448 19 11 19 z" fill="#D4E000" />
</svg>