<?xml version="1.0" encoding="utf-8"?>
<svg xmlns="http://www.w3.org/2000/svg" viewBox="0 0 24 24" width="480" height="480">
  <path d="M13.625 2.0625L3.21875 6.15625C2.5 6.460938 2 7.175781 2 8L2 20C2 21.101563 2.898438 22 4 22L20 22C21.101563 22 22 21.101563 22 20L22 8C22 6.898438 21.101563 6 20 6L9.125 6L14.375 3.9375 Z M 15 9C16.601563 9 18.101563 9.800781 19 11L11 11C11.898438 9.800781 13.398438 9 15 9 Z M 5.5 10C6.300781 10 7 10.699219 7 11.5C7 12.300781 6.300781 13 5.5 13C4.699219 13 4 12.300781 4 11.5C4 10.699219 4.699219 10 5.5 10 Z M 10.09375 13L19.90625 13C20.007813 13.300781 20 13.699219 20 14C20 14.300781 20.007813 14.699219 19.90625 15L10.09375 15C9.992188 14.699219 10 14.300781 10 14C10 13.699219 9.992188 13.300781 10.09375 13 Z M 5.5 15C6.300781 15 7 15.699219 7 16.5C7 17.300781 6.300781 18 5.5 18C4.699219 18 4 17.300781 4 16.5C4 15.699219 4.699219 15 5.5 15 Z M 11 17L19 17C18.101563 18.199219 16.601563 19 15 19C13.398438 19 11.898438 18.199219 11 17Z" fill="#D4E000" />
</svg>